<svg xmlns="http://www.w3.org/2000/svg" xmlns:xlink="http://www.w3.org/1999/xlink" preserveAspectRatio="xMidYMid meet" version="1.0" viewBox="-6.0 -1.5 532.5 539.2" zoomAndPan="magnify" style="fill: rgb(0, 0, 0);" original_string_length="624"><g id="__id51_s7xe8erv3h"><path d="M359.7,486.4C236.1,537.7,7.2,438.6,0.3,281.4C-6,134.9,76.6,41.9,204,5c19.6-5.5,40.1-6.5,60.2-2.9 c61.1,10.5,192.4,44.7,222.6,146C526.5,281.4,483.4,435.1,359.7,486.4z M465.8,165C438.3,73.1,318.6,42.2,263,32.6 c-18.2-3.3-37-2.4-54.8,2.6C92.1,68.7,16.8,153,22.6,285.8C28.8,428.2,237.4,518,350,471.6S502,285.8,465.8,165z" style="fill: rgb(79, 109, 135);"/></g></svg>